# xmcd
#
# Track frame offsets: 
#        150
#        18757
#        34885
#        49800
#        68937
#        84717
#        102030
#        120817
#        141410
#        157117
#        169545
#        187815
#        210095
#        227162
#        241580
#        261147
#
# Disc length: 3744 seconds
#
# Revision: 4
# Processed by: cddbd v1.5.2PL0 Copyright (c) Steve Scherf et al.
# Submitted via: ExactAudioCopy v0.99pb4
#
DISCID=c40e9e10
DTITLE=Wynonna - New Day Dawning
DYEAR=1900
DGENRE=Country
TTITLE0=Going Nowhere
TTITLE1=New Day Dawning
TTITLE2=Can`t Nobody Love You (Like I Do)
TTITLE3=Chain Reaction
TTITLE4=Help Me
TTITLE5=I`ve Got Your Love
TTITLE6=Tuff Enuff
TTITLE7=Who Am I Tryin`To Fool
TTITLE8=Lost Without You
TTITLE9=He Rocks
TTITLE10=Learning To Live With Love Again 
TTITLE11=I Can`t Wait To Meet You
TTITLE12=Stuck In Love
TTITLE13=Big Bang Boogie
TTITLE14=That`s What Makes You Strong
TTITLE15=The 90`s Was The 60`s Turned Upside Down
EXTD=
EXTT0=
EXTT1=
EXTT2=
EXTT3=
EXTT4=
EXTT5=
EXTT6=
EXTT7=
EXTT8=
EXTT9=
EXTT10=
EXTT11=
EXTT12=
EXTT13=
EXTT14=
EXTT15=
PLAYORDER=
